# xmcd
#
# Track frame offsets:
#	150
#	20164
#	43190
#	68862
#	87745
#	112726
#	133035
#	157487
#	181062
#	204352
#	228105
#	245295
#
# Disc length: 3564 seconds
#
# Revision: 0
# Processed by: cddbd v1.5.2PL0 Copyright (c) Steve Scherf et al.
# Submitted via: EZCDAudioConverter 8.0.2.1
#
DISCID=a30dea0c
DTITLE=Lâm Hùng - Hồi Tưởng
DYEAR=2011
DGENRE=
TTITLE0=Mưa nửa đêm
TTITLE1=Hồi Tưởng
TTITLE2=Lá thư đô thị
TTITLE3=Chuyến xe lam chiều
TTITLE4=Xin làm người xa lạ
TTITLE5=Tấm ảnh không hồn
TTITLE6=Khóc thầm
TTITLE7=Chuyến tàu hoàng hôn
TTITLE8=Nhật ký ba thằng bạn
TTITLE9=Hà Tiên
TTITLE10=Vọng cổ. Nghĩa mẹ
TTITLE11=Đêm giao thừa nhớ mẹ
EXTD=
EXTT0=
EXTT1=
EXTT2=
EXTT3=
EXTT4=
EXTT5=
EXTT6=
EXTT7=
EXTT8=
EXTT9=
EXTT10=
EXTT11=
PLAYORDER=
